<svg xmlns="http://www.w3.org/2000/svg" width="1200" height="800" viewBox="0 0 1200 800" role="img" aria-labelledby="art-title art-desc"><title id="art-title">A loud announcement narrowed into one document that can actually be examined.</title><desc id="art-desc">Original conceptual illustration for The Ampersand. It is not a product screen or a chart of measured results.</desc><style>.stroke{stroke:#1B1611;stroke-width:3;fill:none}.route{stroke:#1B1611;stroke-width:3;fill:none;stroke-dasharray:10 9}.gate{stroke:#C6401E;stroke-width:8;fill:none}</style><rect width="1200" height="800" fill="#F0EBE1"/><path d="M64 58h1072M64 742h1072" stroke="#D6CCBA" stroke-width="2"/><path d="M64 58h68" stroke="#C6401E" stroke-width="5"/>
    <path d="M146 299h157l232-148v451L303 454H146Z" fill="#E4DBC8" stroke="#1B1611" stroke-width="4"/>
    <path d="M235 454l35 159h87l-32-147" fill="#F0EBE1" stroke="#1B1611" stroke-width="4"/>
    <path d="M535 155v448" stroke="#C6401E" stroke-width="14"/>
    <path d="M585 257l105-55M588 377h129M585 492l105 55" stroke="#D6CCBA" stroke-width="9"/>
    <g transform="rotate(5 913.5 384)"><path d="M811 243h223v300h-223z" fill="#E4DBC8"/><rect x="802" y="234" width="223" height="300" fill="#F0EBE1" stroke="#1B1611" stroke-width="3"/><path d="M837.68 294h65.2052" stroke="#C6401E" stroke-width="9"/><path d="M837.68 351h151.64000000000001" stroke="#6E6455" stroke-width="3"/><path d="M837.68 379.5h151.64000000000001" stroke="#6E6455" stroke-width="3"/><path d="M837.68 408h151.64000000000001" stroke="#6E6455" stroke-width="3"/><path d="M837.68 436.5h151.64000000000001" stroke="#6E6455" stroke-width="3"/><path d="M837.68 465h104.6316" stroke="#6E6455" stroke-width="3"/></g>
    <path d="M858 474l25 22 46-58" stroke="#C6401E" stroke-width="9" fill="none"/></svg>
